<?xml version="1.0" encoding="UTF-8" standalone="no"?>
<!DOCTYPE svg PUBLIC "-//W3C//DTD SVG 1.1//EN" "http://www.w3.org/Graphics/SVG/1.1/DTD/svg11.dtd">
<svg width="100%" height="100%" viewBox="0 0 800 800" version="1.1" xmlns="http://www.w3.org/2000/svg" xmlns:xlink="http://www.w3.org/1999/xlink" xml:space="preserve" xmlns:serif="http://www.serif.com/" style="fill-rule:evenodd;clip-rule:evenodd;stroke-linejoin:round;stroke-miterlimit:2;">
    <g transform="matrix(1.023848,0,0,1.02649,-111.923972,-113.245)">
        <path d="M451.374,138.325C481.464,120.997 518.536,120.997 548.626,138.325C612.89,175.332 725.451,240.152 789.715,277.159C819.805,294.487 838.341,326.51 838.341,361.166L838.341,638.834C838.341,673.49 819.805,705.513 789.715,722.841C725.451,759.848 612.89,824.668 548.626,861.675C518.536,879.003 481.464,879.003 451.374,861.675C387.11,824.668 274.549,759.848 210.285,722.841C180.195,705.513 161.659,673.49 161.659,638.834L161.659,361.166C161.659,326.51 180.195,294.487 210.285,277.159C274.549,240.152 387.11,175.332 451.374,138.325Z" style="fill:rgb(255,0,27);"/>
        <clipPath id="_clip1">
            <path d="M451.374,138.325C481.464,120.997 518.536,120.997 548.626,138.325C612.89,175.332 725.451,240.152 789.715,277.159C819.805,294.487 838.341,326.51 838.341,361.166L838.341,638.834C838.341,673.49 819.805,705.513 789.715,722.841C725.451,759.848 612.89,824.668 548.626,861.675C518.536,879.003 481.464,879.003 451.374,861.675C387.11,824.668 274.549,759.848 210.285,722.841C180.195,705.513 161.659,673.49 161.659,638.834L161.659,361.166C161.659,326.51 180.195,294.487 210.285,277.159C274.549,240.152 387.11,175.332 451.374,138.325Z"/>
        </clipPath>
        <g clip-path="url(#_clip1)">
            <g transform="matrix(0.976708,0,0,0.974194,11.646233,12.903195)">
                <path d="M153.59,700L500,500L846.41,700L846.41,884.596L153.59,884.596L153.59,700Z" style="fill:rgb(7,1,1);"/>
            </g>
            <g transform="matrix(0.976708,0,0,0.974194,11.646233,12.903195)">
                <path d="M153.59,700L846.41,300L846.41,115.404L153.59,115.404L153.59,700Z" style="fill:rgb(86,86,86);"/>
            </g>
            <g transform="matrix(1.23197,0,0,1.228799,7.211851,8.480226)">
                <path d="M400,221.62C498.451,221.62 578.38,301.549 578.38,400C578.38,498.451 498.451,578.38 400,578.38C301.549,578.38 221.62,498.451 221.62,400C221.62,301.549 301.549,221.62 400,221.62ZM400,292.862C459.131,292.862 507.138,340.869 507.138,400C507.138,459.131 459.131,507.138 400,507.138C340.869,507.138 292.862,459.131 292.862,400C292.862,340.869 340.869,292.862 400,292.862Z" style="fill:white;"/>
            </g>
            <g transform="matrix(0.976708,0,0,0.974194,11.646233,12.903195)">
                <path d="M846.41,300L500,500L846.41,700L846.41,300Z" style="fill:rgb(54,54,54);"/>
            </g>
        </g>
    </g>
    <g transform="matrix(0.888763,0,0,0.888763,21.664786,-9.550341)">
        <g transform="matrix(1,0,0,1,-17.846226,5.142695)">
            <path d="M632.672,435.231L632.672,503.481L613.797,503.481L613.797,435.231L632.672,435.231ZM623.297,408.356C626.047,408.356 628.443,409.002 630.484,410.293C632.526,411.585 633.547,414.022 633.547,417.606C633.547,421.022 632.526,423.397 630.484,424.731C628.443,426.064 626.047,426.731 623.297,426.731C620.464,426.731 618.047,426.064 616.047,424.731C614.047,423.397 613.047,421.022 613.047,417.606C613.047,414.022 614.047,411.585 616.047,410.293C618.047,409.002 620.464,408.356 623.297,408.356Z" style="fill:white;fill-rule:nonzero;"/>
        </g>
        <g transform="matrix(1,0,0,1.185586,-17.846226,-88.296403)">
            <rect x="651.047" y="408.481" width="18.875" height="95" style="fill:white;fill-rule:nonzero;"/>
        </g>
        <g transform="matrix(1,0,0,1,-17.846226,5.142695)">
            <path d="M707.297,435.231L707.297,503.481L688.422,503.481L688.422,435.231L707.297,435.231ZM697.922,408.356C700.672,408.356 703.068,409.002 705.109,410.293C707.151,411.585 708.172,414.022 708.172,417.606C708.172,421.022 707.151,423.397 705.109,424.731C703.068,426.064 700.672,426.731 697.922,426.731C695.089,426.731 692.672,426.064 690.672,424.731C688.672,423.397 687.672,421.022 687.672,417.606C687.672,414.022 688.672,411.585 690.672,410.293C692.672,409.002 695.089,408.356 697.922,408.356Z" style="fill:white;fill-rule:nonzero;"/>
        </g>
    </g>
    <g transform="matrix(1.083839,0,0,1.055857,-217.722696,-128.509952)">
        <path d="M836.542,538.992C833.422,540.16 830.045,540.798 826.52,540.798C810.718,540.798 797.889,527.969 797.889,512.166C797.889,496.364 810.718,483.535 826.52,483.535C830.045,483.535 833.422,484.173 836.542,485.341L836.542,483.349L850.858,483.349L850.858,540.798L836.542,540.798L836.542,538.992ZM836.542,501.948C833.959,499.414 830.421,497.851 826.52,497.851C818.619,497.851 812.205,504.265 812.205,512.166C812.205,520.068 818.619,526.482 826.52,526.482C830.421,526.482 833.959,524.919 836.542,522.385L836.542,501.948Z" style="fill:white;"/>
    </g>
</svg>
