<?xml version="1.0" encoding="UTF-8" standalone="no"?>
<!DOCTYPE svg PUBLIC "-//W3C//DTD SVG 1.1//EN" "http://www.w3.org/Graphics/SVG/1.1/DTD/svg11.dtd">
<svg width="100%" height="100%" viewBox="0 0 800 800" version="1.1" xmlns="http://www.w3.org/2000/svg" xmlns:xlink="http://www.w3.org/1999/xlink" xml:space="preserve" xmlns:serif="http://www.serif.com/" style="fill-rule:evenodd;clip-rule:evenodd;stroke-linejoin:round;stroke-miterlimit:2;">
    <g transform="matrix(1.023848,0,0,1.02649,-111.923972,-113.245)">
        <path d="M409.23,162.594C465.399,130.248 534.601,130.248 590.77,162.594C638.767,190.234 697.576,224.1 745.831,251.888C803.077,284.854 838.341,345.777 838.341,411.708L838.341,590.885C838.341,655.212 803.935,714.652 748.083,746.816C699.114,775.015 638.778,809.76 589.87,837.925C534.258,869.949 465.742,869.949 410.13,837.925C360.893,809.571 300.072,774.546 250.929,746.247C195.688,714.435 161.659,655.646 161.659,592.023L161.659,408.887C161.659,344.701 195.99,285.391 251.719,253.299C300.423,225.252 360.418,190.703 409.23,162.594Z" style="fill:rgb(57,57,205);"/>
        <clipPath id="_clip1">
            <path d="M409.23,162.594C465.399,130.248 534.601,130.248 590.77,162.594C638.767,190.234 697.576,224.1 745.831,251.888C803.077,284.854 838.341,345.777 838.341,411.708L838.341,590.885C838.341,655.212 803.935,714.652 748.083,746.816C699.114,775.015 638.778,809.76 589.87,837.925C534.258,869.949 465.742,869.949 410.13,837.925C360.893,809.571 300.072,774.546 250.929,746.247C195.688,714.435 161.659,655.646 161.659,592.023L161.659,408.887C161.659,344.701 195.99,285.391 251.719,253.299C300.423,225.252 360.418,190.703 409.23,162.594Z"/>
        </clipPath>
        <g clip-path="url(#_clip1)">
            <g transform="matrix(0.976708,0,0,0.974194,11.646233,12.903195)">
                <path d="M252.227,884.596L500,500L846.41,500L846.41,884.596L252.227,884.596Z" style="fill:rgb(0,0,153);"/>
            </g>
            <g transform="matrix(1.23197,0,0,1.228799,7.211851,8.480226)">
                <path d="M400,221.62C498.451,221.62 578.38,301.549 578.38,400C578.38,498.451 498.451,578.38 400,578.38C301.549,578.38 221.62,498.451 221.62,400C221.62,301.549 301.549,221.62 400,221.62ZM400,292.862C459.131,292.862 507.138,340.869 507.138,400C507.138,459.131 459.131,507.138 400,507.138C340.869,507.138 292.862,459.131 292.862,400C292.862,340.869 340.869,292.862 400,292.862Z" style="fill:white;"/>
            </g>
            <g transform="matrix(0.976708,0,0,0.974194,11.646233,12.903195)">
                <path d="M846.41,-70.625L500,500L846.41,1043.167L846.41,-70.625Z" style="fill:rgb(38,38,169);"/>
            </g>
        </g>
    </g>
    <g transform="matrix(1.291882,0,0,1.291882,-288.154597,-191.884296)">
        <g transform="matrix(1,0,0,1,-17.846226,5.142695)">
            <path d="M632.672,435.231L632.672,503.481L613.797,503.481L613.797,435.231L632.672,435.231ZM623.297,408.356C626.047,408.356 628.443,409.002 630.484,410.293C632.526,411.585 633.547,414.022 633.547,417.606C633.547,421.022 632.526,423.397 630.484,424.731C628.443,426.064 626.047,426.731 623.297,426.731C620.464,426.731 618.047,426.064 616.047,424.731C614.047,423.397 613.047,421.022 613.047,417.606C613.047,414.022 614.047,411.585 616.047,410.293C618.047,409.002 620.464,408.356 623.297,408.356Z" style="fill:white;fill-rule:nonzero;"/>
        </g>
        <g transform="matrix(1,0,0,1.185586,-17.846226,-88.296403)">
            <rect x="651.047" y="408.481" width="18.875" height="95" style="fill:white;fill-rule:nonzero;"/>
        </g>
        <g transform="matrix(1,0,0,1,-17.846226,5.142695)">
            <path d="M707.297,435.231L707.297,503.481L688.422,503.481L688.422,435.231L707.297,435.231ZM697.922,408.356C700.672,408.356 703.068,409.002 705.109,410.293C707.151,411.585 708.172,414.022 708.172,417.606C708.172,421.022 707.151,423.397 705.109,424.731C703.068,426.064 700.672,426.731 697.922,426.731C695.089,426.731 692.672,426.064 690.672,424.731C688.672,423.397 687.672,421.022 687.672,417.606C687.672,414.022 688.672,411.585 690.672,410.293C692.672,409.002 695.089,408.356 697.922,408.356Z" style="fill:white;fill-rule:nonzero;"/>
        </g>
    </g>
    <g transform="matrix(1.575439,0,0,1.534765,-636.12174,-364.800756)">
        <path d="M836.542,538.992C833.422,540.16 830.045,540.798 826.52,540.798C810.718,540.798 797.889,527.969 797.889,512.166C797.889,496.364 810.718,483.535 826.52,483.535C830.045,483.535 833.422,484.173 836.542,485.341L836.542,483.349L850.858,483.349L850.858,540.798L836.542,540.798L836.542,538.992ZM836.542,501.948C833.959,499.414 830.421,497.851 826.52,497.851C818.619,497.851 812.205,504.265 812.205,512.166C812.205,520.068 818.619,526.482 826.52,526.482C830.421,526.482 833.959,524.919 836.542,522.385L836.542,501.948Z" style="fill:white;"/>
    </g>
</svg>
