<?xml version="1.0" encoding="UTF-8" standalone="no"?>
<!DOCTYPE svg PUBLIC "-//W3C//DTD SVG 1.1//EN" "http://www.w3.org/Graphics/SVG/1.1/DTD/svg11.dtd">
<svg width="100%" height="100%" viewBox="0 0 800 800" version="1.1" xmlns="http://www.w3.org/2000/svg" xmlns:xlink="http://www.w3.org/1999/xlink" xml:space="preserve" xmlns:serif="http://www.serif.com/" style="fill-rule:evenodd;clip-rule:evenodd;stroke-linejoin:round;stroke-miterlimit:2;">
    <g transform="matrix(1.023848,0,0,1.02649,-111.923972,-113.245)">
        <path d="M451.374,138.325C481.464,120.997 518.536,120.997 548.626,138.325C612.89,175.332 725.451,240.152 789.715,277.159C819.805,294.487 838.341,326.51 838.341,361.166L838.341,638.834C838.341,673.49 819.805,705.513 789.715,722.841C725.451,759.848 612.89,824.668 548.626,861.675C518.536,879.003 481.464,879.003 451.374,861.675C387.11,824.668 274.549,759.848 210.285,722.841C180.195,705.513 161.659,673.49 161.659,638.834L161.659,361.166C161.659,326.51 180.195,294.487 210.285,277.159C274.549,240.152 387.11,175.332 451.374,138.325Z" style="fill:rgb(255,0,27);"/>
        <clipPath id="_clip1">
            <path d="M451.374,138.325C481.464,120.997 518.536,120.997 548.626,138.325C612.89,175.332 725.451,240.152 789.715,277.159C819.805,294.487 838.341,326.51 838.341,361.166L838.341,638.834C838.341,673.49 819.805,705.513 789.715,722.841C725.451,759.848 612.89,824.668 548.626,861.675C518.536,879.003 481.464,879.003 451.374,861.675C387.11,824.668 274.549,759.848 210.285,722.841C180.195,705.513 161.659,673.49 161.659,638.834L161.659,361.166C161.659,326.51 180.195,294.487 210.285,277.159C274.549,240.152 387.11,175.332 451.374,138.325Z"/>
        </clipPath>
        <g clip-path="url(#_clip1)">
            <g transform="matrix(0.976708,0,0,0.974194,11.646233,12.903195)">
                <path d="M153.59,700L500,500L846.41,700L846.41,884.596L153.59,884.596L153.59,700Z" style="fill:rgb(21,21,21);"/>
            </g>
            <g transform="matrix(0.976708,0,0,0.974194,11.646233,12.903195)">
                <path d="M153.59,700L846.41,300L846.41,115.404L153.59,115.404L153.59,700Z" style="fill:rgb(80,80,80);"/>
            </g>
            <g transform="matrix(1.23197,0,0,1.228799,7.211851,8.480226)">
                <path d="M400,221.62C498.451,221.62 578.38,301.549 578.38,400C578.38,498.451 498.451,578.38 400,578.38C301.549,578.38 221.62,498.451 221.62,400C221.62,301.549 301.549,221.62 400,221.62ZM400,292.862C459.131,292.862 507.138,340.869 507.138,400C507.138,459.131 459.131,507.138 400,507.138C340.869,507.138 292.862,459.131 292.862,400C292.862,340.869 340.869,292.862 400,292.862Z" style="fill:white;"/>
            </g>
            <g transform="matrix(0.976708,0,0,0.974194,11.646233,12.903195)">
                <path d="M500,115.404L500,500L846.41,700L846.41,115.404L500,115.404Z" style="fill:rgb(48,48,48);"/>
            </g>
        </g>
    </g>
    <g>
        <g transform="matrix(1.350009,0,0,1.350009,-285.160351,-197.37301)">
            <g transform="matrix(0.888763,0,0,0.888763,21.664786,-9.550341)">
                <g transform="matrix(1,0,0,1,-17.846226,5.142695)">
                    <path d="M633.369,394.734C633.502,428.982 633.636,463.229 633.769,497.477C627.367,493.949 620.965,490.422 614.562,486.895C614.412,452.498 614.261,418.101 614.11,383.703C620.53,387.38 626.949,391.057 633.369,394.734ZM623.648,348.619C627.788,351.026 630.312,354.779 630.993,355.809C633.775,360.017 634.144,365.468 634.156,368.659C634.165,371.048 634.011,376.46 631.08,377.612C628.293,378.708 625.369,377.338 623.763,376.414C619.686,374.068 617.269,370.563 616.343,369.122C613.62,364.883 613.239,359.663 613.226,356.552C613.215,354.106 613.346,348.341 616.248,347.246C619.007,346.205 622.032,347.679 623.648,348.619Z" style="fill:white;fill-rule:nonzero;"/>
                </g>
                <g transform="matrix(1,0,0,1.185586,-17.846226,-88.296403)">
                    <path d="M671.371,515.89C665.037,512.946 658.702,510.002 652.368,507.059C652.175,459.536 651.982,412.014 651.789,364.491C658.151,367.641 664.513,370.791 670.876,373.941C671.041,421.257 671.206,468.573 671.371,515.89Z" style="fill:white;fill-rule:nonzero;"/>
                </g>
                <g transform="matrix(1,0,0,1,-17.846226,5.142695)">
                    <path d="M708.497,437.766C708.564,471.429 708.632,505.093 708.699,538.757C702.432,535.304 696.165,531.852 689.898,528.399C689.814,494.589 689.73,460.779 689.647,426.968C695.93,430.567 702.214,434.166 708.497,437.766ZM699.058,392.461C703.111,394.817 705.578,398.502 706.242,399.511C708.961,403.642 709.311,409.001 709.317,412.133C709.322,414.483 709.161,419.801 706.286,420.941C703.555,422.025 700.693,420.686 699.119,419.781C696.919,418.515 694.206,416.297 691.862,412.631C689.2,408.469 688.838,403.336 688.83,400.283C688.824,397.878 688.964,392.212 691.81,391.129C694.514,390.1 697.475,391.54 699.058,392.461Z" style="fill:white;fill-rule:nonzero;"/>
                </g>
            </g>
            <g transform="matrix(1.083839,0,0,1.055857,-217.722696,-128.509952)">
                <path d="M836.92,595.879C832.362,595.843 828.395,593.688 827.122,592.968C811.571,584.173 798.907,558.064 798.87,534.836C798.833,511.534 811.497,500.034 827.061,509.183C829.705,510.737 833.236,513.415 836.886,517.597L836.885,514.687C841.543,517.425 846.2,520.164 850.858,522.902L850.858,606.391C846.212,603.764 841.566,601.136 836.921,598.509L836.92,595.879ZM836.896,541.854C834.224,536.391 830.663,532.245 827.076,530.156C819.359,525.662 813.003,531.343 813.016,542.994C813.03,554.589 819.366,567.628 827.107,572.048C831.058,574.305 834.513,573.812 836.909,571.675C836.905,561.734 836.901,551.794 836.896,541.854Z" style="fill:white;"/>
            </g>
        </g>
    </g>
</svg>
